<mxfile host="app.diagrams.net" modified="2023-08-24T00:54:20.070Z" agent="Mozilla/5.0 (Macintosh; Intel Mac OS X 10_15_7) AppleWebKit/537.36 (KHTML, like Gecko) Chrome/115.0.0.0 Safari/537.36" etag="PJ2w64ICXnG0mbiFyz5I" version="21.6.6" type="github">
  <diagram name="Page-1" id="vRKVQBC1Z72UgFb7hcXX">
    <mxGraphModel dx="954" dy="562" grid="1" gridSize="10" guides="1" tooltips="1" connect="1" arrows="1" fold="1" page="1" pageScale="1" pageWidth="850" pageHeight="1100" math="0" shadow="0">
      <root>
        <mxCell id="0" />
        <mxCell id="1" parent="0" />
        <mxCell id="YGLA4etkUnUnVpP6Zyq7-4" value="" style="edgeStyle=orthogonalEdgeStyle;rounded=0;orthogonalLoop=1;jettySize=auto;html=1;" edge="1" parent="1" source="YGLA4etkUnUnVpP6Zyq7-2" target="YGLA4etkUnUnVpP6Zyq7-3">
          <mxGeometry relative="1" as="geometry" />
        </mxCell>
        <mxCell id="YGLA4etkUnUnVpP6Zyq7-2" value="START" style="ellipse;whiteSpace=wrap;html=1;aspect=fixed;" vertex="1" parent="1">
          <mxGeometry x="360" y="40" width="80" height="80" as="geometry" />
        </mxCell>
        <mxCell id="YGLA4etkUnUnVpP6Zyq7-7" value="" style="edgeStyle=orthogonalEdgeStyle;rounded=0;orthogonalLoop=1;jettySize=auto;html=1;" edge="1" parent="1" source="YGLA4etkUnUnVpP6Zyq7-3" target="YGLA4etkUnUnVpP6Zyq7-5">
          <mxGeometry relative="1" as="geometry" />
        </mxCell>
        <mxCell id="YGLA4etkUnUnVpP6Zyq7-3" value="INISIASI ESP8266" style="rounded=0;whiteSpace=wrap;html=1;" vertex="1" parent="1">
          <mxGeometry x="340" y="150" width="120" height="60" as="geometry" />
        </mxCell>
        <mxCell id="YGLA4etkUnUnVpP6Zyq7-8" value="" style="edgeStyle=orthogonalEdgeStyle;rounded=0;orthogonalLoop=1;jettySize=auto;html=1;" edge="1" parent="1" source="YGLA4etkUnUnVpP6Zyq7-5" target="YGLA4etkUnUnVpP6Zyq7-6">
          <mxGeometry relative="1" as="geometry" />
        </mxCell>
        <mxCell id="YGLA4etkUnUnVpP6Zyq7-5" value="KONEKSI KE WIFI" style="rounded=0;whiteSpace=wrap;html=1;" vertex="1" parent="1">
          <mxGeometry x="340" y="240" width="120" height="60" as="geometry" />
        </mxCell>
        <mxCell id="YGLA4etkUnUnVpP6Zyq7-9" style="edgeStyle=orthogonalEdgeStyle;rounded=0;orthogonalLoop=1;jettySize=auto;html=1;entryX=1;entryY=0.5;entryDx=0;entryDy=0;exitX=1;exitY=0.5;exitDx=0;exitDy=0;" edge="1" parent="1" source="YGLA4etkUnUnVpP6Zyq7-6" target="YGLA4etkUnUnVpP6Zyq7-5">
          <mxGeometry relative="1" as="geometry">
            <Array as="points">
              <mxPoint x="480" y="370" />
              <mxPoint x="480" y="290" />
              <mxPoint x="460" y="290" />
            </Array>
          </mxGeometry>
        </mxCell>
        <mxCell id="YGLA4etkUnUnVpP6Zyq7-11" value="" style="edgeStyle=orthogonalEdgeStyle;rounded=0;orthogonalLoop=1;jettySize=auto;html=1;" edge="1" parent="1" source="YGLA4etkUnUnVpP6Zyq7-6" target="YGLA4etkUnUnVpP6Zyq7-10">
          <mxGeometry relative="1" as="geometry" />
        </mxCell>
        <mxCell id="YGLA4etkUnUnVpP6Zyq7-6" value="KONEKSI BERHASIL?" style="rhombus;whiteSpace=wrap;html=1;" vertex="1" parent="1">
          <mxGeometry x="360" y="330" width="80" height="80" as="geometry" />
        </mxCell>
        <mxCell id="YGLA4etkUnUnVpP6Zyq7-16" value="" style="edgeStyle=orthogonalEdgeStyle;rounded=0;orthogonalLoop=1;jettySize=auto;html=1;" edge="1" parent="1" source="YGLA4etkUnUnVpP6Zyq7-10" target="YGLA4etkUnUnVpP6Zyq7-15">
          <mxGeometry relative="1" as="geometry" />
        </mxCell>
        <mxCell id="YGLA4etkUnUnVpP6Zyq7-10" value="KONEK KE FIREBASE" style="rounded=0;whiteSpace=wrap;html=1;" vertex="1" parent="1">
          <mxGeometry x="340" y="440" width="120" height="60" as="geometry" />
        </mxCell>
        <mxCell id="YGLA4etkUnUnVpP6Zyq7-28" style="edgeStyle=orthogonalEdgeStyle;rounded=0;orthogonalLoop=1;jettySize=auto;html=1;entryX=0.5;entryY=0;entryDx=0;entryDy=0;exitX=1;exitY=0.5;exitDx=0;exitDy=0;" edge="1" parent="1" source="YGLA4etkUnUnVpP6Zyq7-12" target="YGLA4etkUnUnVpP6Zyq7-26">
          <mxGeometry relative="1" as="geometry" />
        </mxCell>
        <mxCell id="YGLA4etkUnUnVpP6Zyq7-29" style="edgeStyle=orthogonalEdgeStyle;rounded=0;orthogonalLoop=1;jettySize=auto;html=1;entryX=0.5;entryY=0;entryDx=0;entryDy=0;exitX=0;exitY=0.5;exitDx=0;exitDy=0;" edge="1" parent="1" source="YGLA4etkUnUnVpP6Zyq7-12" target="YGLA4etkUnUnVpP6Zyq7-27">
          <mxGeometry relative="1" as="geometry" />
        </mxCell>
        <mxCell id="YGLA4etkUnUnVpP6Zyq7-12" value="INISIASI PIN MOTOR SERVO&amp;nbsp;" style="rounded=0;whiteSpace=wrap;html=1;" vertex="1" parent="1">
          <mxGeometry x="340" y="640" width="120" height="60" as="geometry" />
        </mxCell>
        <mxCell id="YGLA4etkUnUnVpP6Zyq7-13" value="FALSE" style="text;html=1;strokeColor=none;fillColor=none;align=center;verticalAlign=middle;whiteSpace=wrap;rounded=0;" vertex="1" parent="1">
          <mxGeometry x="460" y="320" width="60" height="30" as="geometry" />
        </mxCell>
        <mxCell id="YGLA4etkUnUnVpP6Zyq7-14" value="TRUE" style="text;html=1;strokeColor=none;fillColor=none;align=center;verticalAlign=middle;whiteSpace=wrap;rounded=0;" vertex="1" parent="1">
          <mxGeometry x="390" y="410" width="60" height="30" as="geometry" />
        </mxCell>
        <mxCell id="YGLA4etkUnUnVpP6Zyq7-17" style="edgeStyle=orthogonalEdgeStyle;rounded=0;orthogonalLoop=1;jettySize=auto;html=1;entryX=1;entryY=0.75;entryDx=0;entryDy=0;" edge="1" parent="1" source="YGLA4etkUnUnVpP6Zyq7-15" target="YGLA4etkUnUnVpP6Zyq7-10">
          <mxGeometry relative="1" as="geometry">
            <Array as="points">
              <mxPoint x="480" y="570" />
              <mxPoint x="480" y="480" />
              <mxPoint x="460" y="480" />
            </Array>
          </mxGeometry>
        </mxCell>
        <mxCell id="YGLA4etkUnUnVpP6Zyq7-18" value="" style="edgeStyle=orthogonalEdgeStyle;rounded=0;orthogonalLoop=1;jettySize=auto;html=1;" edge="1" parent="1" source="YGLA4etkUnUnVpP6Zyq7-15" target="YGLA4etkUnUnVpP6Zyq7-12">
          <mxGeometry relative="1" as="geometry" />
        </mxCell>
        <mxCell id="YGLA4etkUnUnVpP6Zyq7-15" value="KONEKSI BERHASIL?" style="rhombus;whiteSpace=wrap;html=1;" vertex="1" parent="1">
          <mxGeometry x="360" y="530" width="80" height="80" as="geometry" />
        </mxCell>
        <mxCell id="YGLA4etkUnUnVpP6Zyq7-25" value="" style="edgeStyle=orthogonalEdgeStyle;rounded=0;orthogonalLoop=1;jettySize=auto;html=1;entryX=1;entryY=0.5;entryDx=0;entryDy=0;" edge="1" parent="1" source="YGLA4etkUnUnVpP6Zyq7-19" target="YGLA4etkUnUnVpP6Zyq7-21">
          <mxGeometry relative="1" as="geometry" />
        </mxCell>
        <mxCell id="YGLA4etkUnUnVpP6Zyq7-19" value="SERVO BERPUTAR" style="rounded=0;whiteSpace=wrap;html=1;" vertex="1" parent="1">
          <mxGeometry x="440" y="810" width="120" height="60" as="geometry" />
        </mxCell>
        <mxCell id="YGLA4etkUnUnVpP6Zyq7-21" value="SELESAI" style="ellipse;whiteSpace=wrap;html=1;aspect=fixed;" vertex="1" parent="1">
          <mxGeometry x="360" y="880" width="80" height="80" as="geometry" />
        </mxCell>
        <mxCell id="YGLA4etkUnUnVpP6Zyq7-30" value="" style="edgeStyle=orthogonalEdgeStyle;rounded=0;orthogonalLoop=1;jettySize=auto;html=1;" edge="1" parent="1" source="YGLA4etkUnUnVpP6Zyq7-26" target="YGLA4etkUnUnVpP6Zyq7-19">
          <mxGeometry relative="1" as="geometry" />
        </mxCell>
        <mxCell id="YGLA4etkUnUnVpP6Zyq7-26" value="KLIK BUTTON FEEDNOW" style="rounded=0;whiteSpace=wrap;html=1;" vertex="1" parent="1">
          <mxGeometry x="440" y="720" width="120" height="60" as="geometry" />
        </mxCell>
        <mxCell id="YGLA4etkUnUnVpP6Zyq7-33" value="" style="edgeStyle=orthogonalEdgeStyle;rounded=0;orthogonalLoop=1;jettySize=auto;html=1;" edge="1" parent="1" source="YGLA4etkUnUnVpP6Zyq7-27" target="YGLA4etkUnUnVpP6Zyq7-31">
          <mxGeometry relative="1" as="geometry" />
        </mxCell>
        <mxCell id="YGLA4etkUnUnVpP6Zyq7-27" value="KLIK BUTTON FEED STOP" style="rounded=0;whiteSpace=wrap;html=1;" vertex="1" parent="1">
          <mxGeometry x="240" y="720" width="120" height="60" as="geometry" />
        </mxCell>
        <mxCell id="YGLA4etkUnUnVpP6Zyq7-34" style="edgeStyle=orthogonalEdgeStyle;rounded=0;orthogonalLoop=1;jettySize=auto;html=1;entryX=0;entryY=0.5;entryDx=0;entryDy=0;" edge="1" parent="1" source="YGLA4etkUnUnVpP6Zyq7-31" target="YGLA4etkUnUnVpP6Zyq7-21">
          <mxGeometry relative="1" as="geometry" />
        </mxCell>
        <mxCell id="YGLA4etkUnUnVpP6Zyq7-31" value="SERVO BERHENTI" style="rounded=0;whiteSpace=wrap;html=1;" vertex="1" parent="1">
          <mxGeometry x="240" y="810" width="120" height="60" as="geometry" />
        </mxCell>
      </root>
    </mxGraphModel>
  </diagram>
</mxfile>
